<?xml version="1.0" encoding="utf-8"?>
<!-- Generator: Adobe Illustrator 24.0.1, SVG Export Plug-In . SVG Version: 6.00 Build 0)  -->
<svg version="1.1" id="Layer_1" xmlns="http://www.w3.org/2000/svg" xmlns:xlink="http://www.w3.org/1999/xlink" x="0px" y="0px"
	 viewBox="0 0 103.9 73.7" style="enable-background:new 0 0 103.9 73.7;" xml:space="preserve">
<style type="text/css">
	.st0{fill:#221F1F;}
	.st1{fill:url(#SVGID_1_);}
	.st2{fill:#E82629;}
	.st3{fill:#B52028;}
	.st4{fill:#A12023;}
	.st5{fill:#8E1A1D;}
</style>
<g>
	<g>
		<path class="st0" d="M6.8,67.4L6,69.8H5L7.6,62h1.2l2.7,7.8h-1.1l-0.8-2.5H6.8z M9.4,66.6l-0.8-2.3c-0.2-0.5-0.3-1-0.4-1.4h0
			c-0.1,0.5-0.3,1-0.4,1.4L7,66.6H9.4z"/>
		<path class="st0" d="M18.4,61.6h1v8.2h-1V61.6z"/>
		<path class="st0" d="M26.9,66c0-0.7,0-1.3,0-1.8h1l0,1h0c0.4-0.7,1.1-1.1,2-1.1c1.3,0,2.4,1.2,2.4,2.9c0,2-1.2,3-2.6,3
			c-0.7,0-1.4-0.3-1.7-0.9h0v3.1h-1L26.9,66L26.9,66z M28,67.6c0,0.1,0,0.3,0,0.4c0.2,0.7,0.8,1.2,1.5,1.2c1.1,0,1.7-0.9,1.7-2.2
			c0-1.1-0.6-2.1-1.7-2.1c-0.7,0-1.3,0.5-1.6,1.3c0,0.1-0.1,0.3-0.1,0.4L28,67.6L28,67.6z"/>
		<path class="st0" d="M39.3,61.6h1v3.5l0,0c0.2-0.3,0.4-0.6,0.7-0.7c0.3-0.2,0.6-0.3,1-0.3c0.7,0,1.9,0.5,1.9,2.4v3.3h-1v-3.2
			c0-0.9-0.3-1.7-1.3-1.7c-0.6,0-1.2,0.5-1.4,1c0,0.1-0.1,0.3-0.1,0.5v3.4h-1L39.3,61.6L39.3,61.6z"/>
		<path class="st0" d="M54.7,69.8l-0.1-0.7h0c-0.3,0.4-0.9,0.8-1.7,0.8c-1.1,0-1.7-0.8-1.7-1.6c0-1.3,1.2-2.1,3.4-2.1v-0.1
			c0-0.5-0.1-1.3-1.3-1.3c-0.5,0-1.1,0.2-1.5,0.4l-0.2-0.7c0.5-0.3,1.1-0.5,1.9-0.5c1.7,0,2.1,1.2,2.1,2.3v2.1c0,0.5,0,1,0.1,1.3
			L54.7,69.8L54.7,69.8z M54.5,67c-1.1,0-2.4,0.2-2.4,1.3c0,0.6,0.4,1,1,1c0.7,0,1.2-0.5,1.3-1c0-0.1,0-0.2,0-0.3L54.5,67L54.5,67z"
			/>
		<path class="st0" d="M69,69.5c-0.4,0.2-1.3,0.4-2.4,0.4c-1.2,0-2.2-0.3-2.9-1c-0.7-0.6-1.1-1.7-1.1-2.9c0-2.3,1.6-4,4.2-4
			c0.9,0,1.6,0.2,1.9,0.3l-0.3,0.8c-0.4-0.2-1-0.3-1.7-0.3c-1.9,0-3.2,1.2-3.2,3.2s1.2,3.2,3,3.2c0.6,0,1.1-0.1,1.3-0.2v-2.3h-1.6
			v-0.8H69V69.5z"/>
		<path class="st0" d="M76.3,66c0-0.6,0-1.2,0-1.7h0.9l0,1.1h0c0.3-0.7,0.9-1.2,1.6-1.2c0.1,0,0.2,0,0.3,0v1c-0.1,0-0.2,0-0.3,0
			c-0.7,0-1.2,0.6-1.4,1.3c0,0.1,0,0.3,0,0.5v3h-1L76.3,66L76.3,66z"/>
		<path class="st0" d="M87.1,62.7c0,0.3-0.3,0.6-0.6,0.6c-0.3,0-0.6-0.3-0.6-0.6c0-0.3,0.3-0.6,0.6-0.6C86.8,62,87.1,62.3,87.1,62.7
			z M85.9,69.8v-5.6h1v5.6H85.9z"/>
		<path class="st0" d="M94.4,66c0-0.7,0-1.3,0-1.8h0.9l0,1h0c0.4-0.7,1.1-1.1,2-1.1c1.3,0,2.4,1.2,2.4,2.9c0,2-1.2,3-2.6,3
			c-0.7,0-1.4-0.3-1.7-0.9h0v3.1h-1V66L94.4,66z M95.5,67.6c0,0.1,0,0.3,0,0.4c0.2,0.7,0.8,1.2,1.5,1.2c1.1,0,1.7-0.9,1.7-2.2
			c0-1.1-0.6-2.1-1.7-2.1c-0.7,0-1.3,0.5-1.6,1.3c0,0.1-0.1,0.3-0.1,0.4L95.5,67.6L95.5,67.6z"/>
	</g>
	
		<linearGradient id="SVGID_1_" gradientUnits="userSpaceOnUse" x1="10.8457" y1="50.7823" x2="70.3051" y2="50.7823" gradientTransform="matrix(1 0 0 -1 0 82)">
		<stop  offset="0" style="stop-color:#EC3734"/>
		<stop  offset="1" style="stop-color:#E82629"/>
	</linearGradient>
	<path class="st1" d="M51.1,37.4l-0.6-1.5l-6.7-17.3L39,5.8h-9.4L10.8,54.3h9.6l3.9-10h19.8c0,0,0,0,0,0c2.3,3.9,5.4,7,9.2,9.1
		c0.6,0.3,1.1,0.6,1.7,0.8c3.5,1.6,7.4,2.4,11.8,2.4c1.2,0,2.3,0,3.4-0.2C60.6,54.6,53.1,47,51.1,37.4z M27.8,35.2l6.5-16.7
		l6.5,16.7H27.8z"/>
	<path class="st2" d="M50,22.5L50,22.5c-1.7,0-3.1-1.4-3.1-3.1v-7.8c0-1.7,1.4-3.1,3.1-3.1l0,0c1.7,0,3.1,1.4,3.1,3.1v7.8
		C53.1,21.1,51.7,22.5,50,22.5z"/>
	<path class="st3" d="M60.6,15L60.6,15c-1.7,0-3.1-1.4-3.1-3.1V4.2c0-1.7,1.4-3.1,3.1-3.1l0,0c1.7,0,3.1,1.4,3.1,3.1v7.8
		C63.7,13.7,62.3,15,60.6,15z"/>
	<path class="st4" d="M74.2,15.5L74.2,15.5c-1.7,0-3.1-1.4-3.1-3.1V4.7c0-1.7,1.4-3.1,3.1-3.1l0,0c1.7,0,3.1,1.4,3.1,3.1v7.8
		C77.3,14.2,75.9,15.5,74.2,15.5z"/>
	<path class="st5" d="M84.8,23.7L84.8,23.7c-1.7,0-3.1-1.4-3.1-3.1v-7.8c0-1.7,1.4-3.1,3.1-3.1l0,0c1.7,0,3.1,1.4,3.1,3.1v7.8
		C87.8,22.4,86.5,23.7,84.8,23.7z"/>
	<path class="st3" d="M91,33.3c0,4.1-1.2,8-3.3,11.7c-2.2,3.8-5,6.7-8.5,8.7c-2.6,1.5-5.6,2.4-8.9,2.8l0,0
		c-9.7-1.9-17.3-9.5-19.2-19.1l0.3,0.9c0,0,0,0,0,0c0.8,1.7,1.9,3.2,3.4,4.6c3.3,3.2,7.4,4.9,12.4,4.9c0.6,0,1.1,0,1.6,0l0,0
		c1.4,0.3,2.9,0.6,4.5,0.6C82.3,48.4,89.7,41.8,91,33.3z"/>
	<path class="st4" d="M91,32.9c0,0.1,0,0.3,0,0.4c-1.3,8.5-8.7,15-17.7,15c-1.6,0-3-0.2-4.5-0.6c2.5-0.2,4.6-0.9,6.4-1.9
		c2.2-1.3,3.9-3.4,5.3-6.3h-9.7c-2.4,0-4.3-1.9-4.3-4.3s1.9-4.3,4.3-4.3H91L91,32.9z"/>
	<path class="st5" d="M81.2,35.5c0,1.4-0.3,2.8-0.8,4h-9.5c-2.4,0-4.3-1.9-4.3-4.3s1.9-4.3,4.3-4.3h9.2
		C80.8,32.3,81.2,33.9,81.2,35.5z"/>
</g>
</svg>
